<svg width="1600" height="900" viewBox="0 0 1600 900" fill="none" xmlns="http://www.w3.org/2000/svg">
  <defs>
    <linearGradient id="bg" x1="0" y1="0" x2="1" y2="1">
      <stop offset="0%" stop-color="#0F172A"/>
      <stop offset="100%" stop-color="#1E293B"/>
    </linearGradient>
    <linearGradient id="field" x1="0" y1="0" x2="1" y2="0">
      <stop offset="0%" stop-color="#D1FAE5"/>
      <stop offset="100%" stop-color="#86EFAC"/>
    </linearGradient>
    <linearGradient id="screen" x1="0" y1="0" x2="0" y2="1">
      <stop offset="0%" stop-color="#FFFFFF"/>
      <stop offset="100%" stop-color="#F8FAFC"/>
    </linearGradient>
    <filter id="shadow" x="-20%" y="-20%" width="140%" height="140%">
      <feDropShadow dx="0" dy="18" stdDeviation="22" flood-color="#0F172A" flood-opacity="0.28"/>
    </filter>
  </defs>

  <rect width="1600" height="900" rx="44" fill="#0B1220"/>
  <path d="M0 640C170 560 320 516 480 522C640 528 750 590 864 634C1000 686 1176 692 1600 590V900H0V640Z" fill="url(#field)"/>
  <path d="M1080 210C1188 152 1310 125 1470 136C1530 140 1570 154 1600 170V0H1080V210Z" fill="#E2E8F0" opacity="0.18"/>
  <circle cx="1330" cy="170" r="110" fill="#FFF7ED" opacity="0.25"/>

  <g filter="url(#shadow)">
    <rect x="70" y="74" width="790" height="752" rx="40" fill="#111827"/>
  </g>

  <path d="M92 138H722V230H92V138Z" fill="#1F2937"/>
  <path d="M92 138H722V170C722 187 708 201 691 201H123C106 201 92 187 92 170V138Z" fill="#65A30D"/>
  <path d="M92 138H722V154C722 168 711 180 697 180H118C104 180 92 168 92 154V138Z" fill="#A7F3D0" opacity="0.9"/>

  <rect x="112" y="260" width="254" height="360" rx="24" fill="#166534"/>
  <rect x="140" y="286" width="198" height="12" rx="6" fill="#DCFCE7" opacity="0.8"/>
  <rect x="140" y="318" width="198" height="12" rx="6" fill="#BBF7D0" opacity="0.75"/>
  <rect x="140" y="350" width="198" height="12" rx="6" fill="#DCFCE7" opacity="0.8"/>
  <rect x="140" y="382" width="198" height="12" rx="6" fill="#BBF7D0" opacity="0.75"/>
  <rect x="140" y="414" width="198" height="12" rx="6" fill="#DCFCE7" opacity="0.8"/>

  <rect x="382" y="254" width="322" height="372" rx="28" fill="#FFFFFF" stroke="#E2E8F0"/>
  <rect x="412" y="282" width="90" height="12" rx="6" fill="#DCFCE7"/>
  <rect x="412" y="322" width="250" height="16" rx="8" fill="#E2E8F0"/>
  <rect x="412" y="360" width="286" height="54" rx="18" fill="#F8FAFC" stroke="#E2E8F0"/>
  <rect x="412" y="430" width="286" height="54" rx="18" fill="#FFFFFF" stroke="#E2E8F0"/>
  <rect x="412" y="512" width="286" height="56" rx="18" fill="#166534"/>
  <rect x="436" y="530" width="110" height="16" rx="8" fill="#FFFFFF" opacity="0.95"/>
  <rect x="568" y="530" width="110" height="16" rx="8" fill="#FFFFFF" opacity="0.95"/>
  <circle cx="682" cy="304" r="24" fill="#DCFCE7"/>
  <path d="M673 304h18M682 295v18" stroke="#166534" stroke-width="4.5" stroke-linecap="round"/>

  <g transform="translate(214 694)">
    <circle cx="0" cy="0" r="92" fill="#ECFDF5"/>
    <circle cx="0" cy="0" r="68" fill="#FFFFFF"/>
    <path d="M-24 -8c0-20 16-36 36-36s36 16 36 36-16 36-36 36-36-16-36-36Z" fill="#F4C7A1"/>
    <path d="M-34 28c10-24 58-24 68 0" stroke="#1F2937" stroke-width="10" stroke-linecap="round"/>
    <path d="M-38 -44c13-20 32-30 54-30 24 0 43 10 58 31l-11 8c-12-15-29-23-47-23-15 0-29 5-39 16l-15-2Z" fill="#1F2937"/>
    <path d="M-40 -12c-10 18-11 35-5 54l-14 8c-10-27-8-54 4-80l15 18Z" fill="#166534"/>
    <path d="M38 -12c10 18 11 35 5 54l14 8c10-27 8-54-4-80l-15 18Z" fill="#166534"/>
    <circle cx="-12" cy="-8" r="4" fill="#1F2937"/>
    <circle cx="12" cy="-8" r="4" fill="#1F2937"/>
    <path d="M-2 3h4" stroke="#1F2937" stroke-width="4" stroke-linecap="round"/>
  </g>

  <g filter="url(#shadow)">
    <rect x="930" y="110" width="560" height="680" rx="38" fill="url(#screen)"/>
  </g>
  <rect x="964" y="144" width="170" height="44" rx="22" fill="#DCFCE7"/>
  <text x="1049" y="173" text-anchor="middle" fill="#166534" font-family="Arial, Helvetica, sans-serif" font-size="20" font-weight="700">Login</text>
  <rect x="1206" y="144" width="170" height="44" rx="22" fill="#EFF6FF"/>
  <text x="1291" y="173" text-anchor="middle" fill="#64748B" font-family="Arial, Helvetica, sans-serif" font-size="20" font-weight="700">Register</text>

  <circle cx="1360" cy="252" r="30" fill="#DCFCE7"/>
  <path d="M1350 252h20M1360 242v20" stroke="#166534" stroke-width="5" stroke-linecap="round"/>

  <rect x="964" y="230" width="462" height="74" rx="22" fill="#FFFFFF" stroke="#E2E8F0"/>
  <rect x="964" y="322" width="462" height="74" rx="22" fill="#F8FAFC" stroke="#E2E8F0"/>
  <rect x="964" y="416" width="462" height="74" rx="22" fill="#FFFFFF" stroke="#E2E8F0"/>

  <rect x="964" y="524" width="462" height="92" rx="24" fill="#166534"/>
  <rect x="990" y="554" width="194" height="12" rx="6" fill="#FFFFFF" opacity="0.95"/>
  <rect x="990" y="578" width="118" height="12" rx="6" fill="#FFFFFF" opacity="0.85"/>

  <rect x="964" y="648" width="462" height="110" rx="24" fill="#ECFDF5"/>
  <rect x="990" y="676" width="182" height="12" rx="6" fill="#A7F3D0"/>
  <rect x="990" y="704" width="246" height="12" rx="6" fill="#D1D5DB"/>
  <rect x="990" y="732" width="216" height="12" rx="6" fill="#A7F3D0"/>

  <path d="M946 868C1040 822 1132 804 1244 808C1326 811 1398 830 1468 862" stroke="#86EFAC" stroke-width="10" stroke-linecap="round" opacity="0.8"/>
</svg>
