<svg width="1600" height="1200" viewBox="0 0 1600 1200" fill="none" xmlns="http://www.w3.org/2000/svg">
  <defs>
    <linearGradient id="sky" x1="0" y1="0" x2="1" y2="1">
      <stop offset="0%" stop-color="#F8FAFC"/>
      <stop offset="55%" stop-color="#ECFDF5"/>
      <stop offset="100%" stop-color="#DCFCE7"/>
    </linearGradient>
    <linearGradient id="shop" x1="0" y1="0" x2="0" y2="1">
      <stop offset="0%" stop-color="#2F855A"/>
      <stop offset="100%" stop-color="#166534"/>
    </linearGradient>
    <filter id="softShadow" x="-20%" y="-20%" width="140%" height="140%">
      <feDropShadow dx="0" dy="18" stdDeviation="24" flood-color="#0F172A" flood-opacity="0.12"/>
    </filter>
  </defs>

  <rect width="1600" height="1200" rx="64" fill="url(#sky)"/>
  <path d="M0 890C180 765 330 730 489 748C642 766 760 850 879 895C1015 946 1171 952 1600 814V1200H0V890Z" fill="#D9FBE5"/>
  <path d="M1080 944C1210 878 1349 853 1600 874V1200H970C1000 1092 1045 981 1080 944Z" fill="#CDEFD6"/>
  <circle cx="1212" cy="182" r="152" fill="#DCFCE7" opacity="0.55"/>
  <circle cx="1385" cy="282" r="92" fill="#BBF7D0" opacity="0.38"/>

  <g filter="url(#softShadow)">
    <rect x="80" y="130" width="760" height="890" rx="44" fill="#FFFFFF"/>
  </g>

  <path d="M108 194H784V328H108V194Z" fill="url(#shop)"/>
  <path d="M108 194H784V236C784 257 765 276 742 276H150C127 276 108 257 108 236V194Z" fill="#48BB78" opacity="0.8"/>
  <path d="M108 194H784V220C784 237 771 252 754 252H138C121 252 108 237 108 220V194Z" fill="#9AE6B4"/>
  <path d="M90 328H802V365H90V328Z" fill="#0F5132" opacity="0.34"/>

  <rect x="116" y="354" width="248" height="446" rx="22" fill="#1F6F43"/>
  <rect x="132" y="372" width="214" height="16" rx="8" fill="#A7F3D0" opacity="0.7"/>
  <rect x="132" y="438" width="214" height="16" rx="8" fill="#A7F3D0" opacity="0.7"/>
  <rect x="132" y="504" width="214" height="16" rx="8" fill="#A7F3D0" opacity="0.7"/>
  <rect x="132" y="570" width="214" height="16" rx="8" fill="#A7F3D0" opacity="0.7"/>
  <rect x="132" y="636" width="214" height="16" rx="8" fill="#A7F3D0" opacity="0.7"/>

  <rect x="128" y="398" width="56" height="98" rx="14" fill="#F8FAFC"/>
  <rect x="198" y="398" width="56" height="98" rx="14" fill="#F8FAFC"/>
  <rect x="268" y="398" width="56" height="98" rx="14" fill="#F8FAFC"/>
  <rect x="128" y="532" width="56" height="98" rx="14" fill="#F8FAFC"/>
  <rect x="198" y="532" width="56" height="98" rx="14" fill="#F8FAFC"/>
  <rect x="268" y="532" width="56" height="98" rx="14" fill="#F8FAFC"/>

  <circle cx="205" cy="488" r="24" fill="#DCFCE7"/>
  <path d="M197 487h16M205 479v16" stroke="#166534" stroke-width="5" stroke-linecap="round"/>
  <circle cx="275" cy="622" r="24" fill="#DCFCE7"/>
  <path d="M265 622h20" stroke="#166534" stroke-width="5" stroke-linecap="round"/>
  <path d="M273 614v16" stroke="#166534" stroke-width="5" stroke-linecap="round"/>

  <rect x="406" y="372" width="262" height="318" rx="26" fill="#FFFFFF" filter="url(#softShadow)"/>
  <rect x="438" y="404" width="198" height="14" rx="7" fill="#DCFCE7"/>
  <rect x="438" y="438" width="150" height="14" rx="7" fill="#E2E8F0"/>
  <rect x="438" y="472" width="220" height="14" rx="7" fill="#DCFCE7"/>
  <rect x="438" y="506" width="188" height="14" rx="7" fill="#E2E8F0"/>
  <rect x="438" y="540" width="166" height="14" rx="7" fill="#DCFCE7"/>
  <rect x="438" y="574" width="206" height="14" rx="7" fill="#E2E8F0"/>

  <rect x="390" y="732" width="320" height="78" rx="22" fill="#166534"/>
  <text x="550" y="782" text-anchor="middle" fill="white" font-family="Arial, Helvetica, sans-serif" font-size="24" font-weight="700">Login with mobile OTP</text>

  <g transform="translate(495 230)">
    <circle cx="0" cy="0" r="76" fill="#DCFCE7"/>
    <circle cx="0" cy="0" r="56" fill="#FFFFFF"/>
    <path d="M-18 -4c0-15 14-28 32-28s32 13 32 28-14 28-32 28S-18 11-18 -4Z" fill="#FED7AA"/>
    <path d="M-28 20c10-26 56-26 66 0" stroke="#1F2937" stroke-width="10" stroke-linecap="round"/>
    <circle cx="-9" cy="-12" r="4" fill="#1F2937"/>
    <circle cx="11" cy="-12" r="4" fill="#1F2937"/>
    <path d="M-1 -1h4" stroke="#1F2937" stroke-width="4" stroke-linecap="round"/>
    <path d="M-34 -44c11-18 31-28 54-28 26 0 47 11 60 30l-14 8c-11-13-26-20-46-20-16 0-31 5-40 15l-14-5Z" fill="#1F2937"/>
    <path d="M-36 -12c-8 17-9 33-5 49l-14 7c-6-23-4-46 5-67l14 11Z" fill="#2F855A"/>
    <path d="M36 -12c8 17 9 33 5 49l14 7c6-23 4-46-5-67l-14 11Z" fill="#2F855A"/>
  </g>

  <g transform="translate(944 192)">
    <rect x="0" y="0" width="560" height="690" rx="46" fill="white" filter="url(#softShadow)"/>
    <rect x="42" y="44" width="180" height="48" rx="24" fill="#DCFCE7"/>
    <text x="132" y="76" text-anchor="middle" fill="#166534" font-family="Arial, Helvetica, sans-serif" font-size="20" font-weight="700">Login</text>
    <rect x="300" y="44" width="180" height="48" rx="24" fill="#EFF6FF"/>
    <text x="390" y="76" text-anchor="middle" fill="#64748B" font-family="Arial, Helvetica, sans-serif" font-size="20" font-weight="700">Register</text>
    <circle cx="494" cy="144" r="30" fill="#DCFCE7"/>
    <path d="M484 145h20M494 135v20" stroke="#166534" stroke-width="5" stroke-linecap="round"/>
    <rect x="42" y="136" width="476" height="74" rx="22" fill="#F8FAFC" stroke="#E2E8F0"/>
    <rect x="42" y="236" width="476" height="74" rx="22" fill="#FFFFFF" stroke="#E2E8F0"/>
    <rect x="42" y="340" width="476" height="74" rx="22" fill="#166534"/>
    <rect x="42" y="460" width="476" height="130" rx="26" fill="#ECFDF5"/>
    <rect x="68" y="486" width="190" height="14" rx="7" fill="#A7F3D0"/>
    <rect x="68" y="516" width="250" height="14" rx="7" fill="#D1D5DB"/>
    <rect x="68" y="546" width="220" height="14" rx="7" fill="#A7F3D0"/>
  </g>

  <path d="M976 920c88-56 180-80 299-78 90 2 160 21 225 56" stroke="#86EFAC" stroke-width="10" stroke-linecap="round" opacity="0.7"/>
  <path d="M1202 890c0 0 22-28 56-28s56 28 56 28" stroke="#BBF7D0" stroke-width="8" stroke-linecap="round" opacity="0.8"/>
</svg>
